<mxfile host="app.diagrams.net" modified="2024-04-24T07:19:44.744Z" agent="Mozilla/5.0 (Macintosh; Intel Mac OS X 10_15_7) AppleWebKit/537.36 (KHTML, like Gecko) Chrome/124.0.0.0 Safari/537.36" etag="wRyKB-g9-GUiOuDDA7nQ" version="24.2.8" type="gitlab">
  <diagram name="Страница — 1" id="AUp2mg7xWHnDjK-ck85j">
    <mxGraphModel dx="1383" dy="747" grid="1" gridSize="10" guides="1" tooltips="1" connect="1" arrows="1" fold="1" page="1" pageScale="1" pageWidth="827" pageHeight="1169" math="0" shadow="0">
      <root>
        <mxCell id="0" />
        <mxCell id="1" parent="0" />
        <mxCell id="9KKYod5vIWEOe8en1qUW-10" style="edgeStyle=orthogonalEdgeStyle;rounded=1;sketch=1;hachureGap=4;jiggle=2;curveFitting=1;orthogonalLoop=1;jettySize=auto;html=1;exitX=1;exitY=0.5;exitDx=0;exitDy=0;entryX=0.5;entryY=0;entryDx=0;entryDy=0;fontFamily=Architects Daughter;fontSource=https%3A%2F%2Ffonts.googleapis.com%2Fcss%3Ffamily%3DArchitects%2BDaughter;" edge="1" parent="1" source="9KKYod5vIWEOe8en1qUW-2" target="9KKYod5vIWEOe8en1qUW-8">
          <mxGeometry relative="1" as="geometry" />
        </mxCell>
        <mxCell id="9KKYod5vIWEOe8en1qUW-15" style="edgeStyle=orthogonalEdgeStyle;rounded=1;sketch=1;hachureGap=4;jiggle=2;curveFitting=1;orthogonalLoop=1;jettySize=auto;html=1;exitX=0.5;exitY=0;exitDx=0;exitDy=0;entryX=0.5;entryY=0;entryDx=0;entryDy=0;fontFamily=Architects Daughter;fontSource=https%3A%2F%2Ffonts.googleapis.com%2Fcss%3Ffamily%3DArchitects%2BDaughter;" edge="1" parent="1" source="9KKYod5vIWEOe8en1qUW-2" target="9KKYod5vIWEOe8en1qUW-13">
          <mxGeometry relative="1" as="geometry" />
        </mxCell>
        <mxCell id="9KKYod5vIWEOe8en1qUW-2" value="User ms" style="rounded=0;whiteSpace=wrap;html=1;sketch=1;hachureGap=4;jiggle=2;curveFitting=1;fontFamily=Architects Daughter;fontSource=https%3A%2F%2Ffonts.googleapis.com%2Fcss%3Ffamily%3DArchitects%2BDaughter;" vertex="1" parent="1">
          <mxGeometry x="369" y="230" width="120" height="60" as="geometry" />
        </mxCell>
        <mxCell id="9KKYod5vIWEOe8en1qUW-9" style="edgeStyle=orthogonalEdgeStyle;rounded=1;sketch=1;hachureGap=4;jiggle=2;curveFitting=1;orthogonalLoop=1;jettySize=auto;html=1;exitX=1;exitY=0.5;exitDx=0;exitDy=0;entryX=0.5;entryY=1;entryDx=0;entryDy=0;fontFamily=Architects Daughter;fontSource=https%3A%2F%2Ffonts.googleapis.com%2Fcss%3Ffamily%3DArchitects%2BDaughter;" edge="1" parent="1" source="9KKYod5vIWEOe8en1qUW-3" target="9KKYod5vIWEOe8en1qUW-8">
          <mxGeometry relative="1" as="geometry" />
        </mxCell>
        <mxCell id="9KKYod5vIWEOe8en1qUW-18" style="edgeStyle=orthogonalEdgeStyle;rounded=1;sketch=1;hachureGap=4;jiggle=2;curveFitting=1;orthogonalLoop=1;jettySize=auto;html=1;exitX=0.5;exitY=1;exitDx=0;exitDy=0;entryX=0.5;entryY=1;entryDx=0;entryDy=0;fontFamily=Architects Daughter;fontSource=https%3A%2F%2Ffonts.googleapis.com%2Fcss%3Ffamily%3DArchitects%2BDaughter;" edge="1" parent="1" source="9KKYod5vIWEOe8en1qUW-3" target="9KKYod5vIWEOe8en1qUW-14">
          <mxGeometry relative="1" as="geometry" />
        </mxCell>
        <mxCell id="9KKYod5vIWEOe8en1qUW-3" value="Post ms" style="rounded=0;whiteSpace=wrap;html=1;sketch=1;hachureGap=4;jiggle=2;curveFitting=1;fontFamily=Architects Daughter;fontSource=https%3A%2F%2Ffonts.googleapis.com%2Fcss%3Ffamily%3DArchitects%2BDaughter;" vertex="1" parent="1">
          <mxGeometry x="369" y="390" width="120" height="60" as="geometry" />
        </mxCell>
        <mxCell id="9KKYod5vIWEOe8en1qUW-11" style="edgeStyle=orthogonalEdgeStyle;rounded=1;sketch=1;hachureGap=4;jiggle=2;curveFitting=1;orthogonalLoop=1;jettySize=auto;html=1;exitX=0.75;exitY=0;exitDx=0;exitDy=0;entryX=1;entryY=0.25;entryDx=0;entryDy=0;fontFamily=Architects Daughter;fontSource=https%3A%2F%2Ffonts.googleapis.com%2Fcss%3Ffamily%3DArchitects%2BDaughter;" edge="1" parent="1" source="9KKYod5vIWEOe8en1qUW-8" target="9KKYod5vIWEOe8en1qUW-2">
          <mxGeometry relative="1" as="geometry" />
        </mxCell>
        <mxCell id="9KKYod5vIWEOe8en1qUW-12" style="edgeStyle=orthogonalEdgeStyle;rounded=1;sketch=1;hachureGap=4;jiggle=2;curveFitting=1;orthogonalLoop=1;jettySize=auto;html=1;exitX=0.75;exitY=1;exitDx=0;exitDy=0;entryX=1;entryY=0.75;entryDx=0;entryDy=0;fontFamily=Architects Daughter;fontSource=https%3A%2F%2Ffonts.googleapis.com%2Fcss%3Ffamily%3DArchitects%2BDaughter;" edge="1" parent="1" source="9KKYod5vIWEOe8en1qUW-8" target="9KKYod5vIWEOe8en1qUW-3">
          <mxGeometry relative="1" as="geometry" />
        </mxCell>
        <mxCell id="9KKYod5vIWEOe8en1qUW-8" value="Rabbit MQ" style="rounded=1;whiteSpace=wrap;html=1;sketch=1;hachureGap=4;jiggle=2;curveFitting=1;fontFamily=Architects Daughter;fontSource=https%3A%2F%2Ffonts.googleapis.com%2Fcss%3Ffamily%3DArchitects%2BDaughter;" vertex="1" parent="1">
          <mxGeometry x="529" y="310" width="120" height="60" as="geometry" />
        </mxCell>
        <mxCell id="9KKYod5vIWEOe8en1qUW-13" value="user db" style="shape=datastore;whiteSpace=wrap;html=1;rounded=1;sketch=1;hachureGap=4;jiggle=2;curveFitting=1;fontFamily=Architects Daughter;fontSource=https%3A%2F%2Ffonts.googleapis.com%2Fcss%3Ffamily%3DArchitects%2BDaughter;" vertex="1" parent="1">
          <mxGeometry x="249" y="230" width="60" height="60" as="geometry" />
        </mxCell>
        <mxCell id="9KKYod5vIWEOe8en1qUW-14" value="post db" style="shape=datastore;whiteSpace=wrap;html=1;rounded=1;sketch=1;hachureGap=4;jiggle=2;curveFitting=1;fontFamily=Architects Daughter;fontSource=https%3A%2F%2Ffonts.googleapis.com%2Fcss%3Ffamily%3DArchitects%2BDaughter;" vertex="1" parent="1">
          <mxGeometry x="249" y="390" width="60" height="60" as="geometry" />
        </mxCell>
      </root>
    </mxGraphModel>
  </diagram>
</mxfile>
